<?xml version="1.0" encoding="utf-8"?>
<!-- Generator: Adobe Illustrator 28.0.0, SVG Export Plug-In . SVG Version: 6.00 Build 0)  -->
<svg version="1.1" id="Layer_2_00000178165708212545038600000012085013986329715090_"
	 xmlns="http://www.w3.org/2000/svg" xmlns:xlink="http://www.w3.org/1999/xlink" x="0px" y="0px" viewBox="0 0 311.3 32.4"
	 style="enable-background:new 0 0 311.3 32.4;" xml:space="preserve">
<style type="text/css">
	.st0{fill:#B5121B;}
	.st1{fill:#FFFFFF;}
</style>
<path class="st0" d="M122.3,16.2c0,8.9-7.2,16.2-16.2,16.2S90,25.1,90,16.2S97.2,0,106.2,0S122.4,7.2,122.3,16.2
	C122.4,16.2,122.4,16.2,122.3,16.2z"/>
<path d="M2.5,6.4H0v18.7h14.6v-2.6H2.8V6.4H2.5L2.5,6.4z"/>
<path d="M33.3,6.4h-3c0,0-6,6.7-6.4,7.1c-0.4-0.4-6.4-7.1-6.4-7.1H14c0,0,8.4,9.3,8.5,9.4v9.3h2.8v-9.2c0.1-0.1,8.5-9.5,8.5-9.5
	L33.3,6.4L33.3,6.4z"/>
<path d="M37,15.8c0,5.7,4.1,9.8,9.7,9.8s9.7-4.1,9.7-9.8s-4.1-9.8-9.7-9.8S37,10.1,37,15.8L37,15.8z M39.8,15.8
	c0-4.1,2.9-7.2,6.8-7.2s6.8,3,6.8,7.2s-2.9,7.1-6.8,7.1S39.8,19.9,39.8,15.8C39.8,15.8,39.8,15.8,39.8,15.8z"/>
<path d="M79.7,6.4h-2.5v13.2c-0.8-1-11.4-13.2-11.4-13.2h-1.6v18.7H67V11.9c0.8,0.9,11.5,13.2,11.5,13.2H80V6.4H79.7L79.7,6.4z"/>
<path class="st1" d="M110.3,6.4H97.9c0,0,4.8,5.7,5.2,6.1c-3.6,1.9-5.3,4.1-5.3,6.9c0,3.7,2.8,6.2,7,6.2c2.5,0,4.6-0.9,7-2.9
	c0.3,0.3,1.9,2.2,1.9,2.2h3.6c0,0-3.2-3.7-3.5-4c0.3-0.3,1.8-2,1.8-2l-0.2-0.1l-1.6-2.1c0,0-1.5,1.7-1.8,2c-0.3-0.4-7.7-9.1-8.4-9.9
	h8.4l-1.6-2.5L110.3,6.4L110.3,6.4z M100.6,19.3c0-2,1.4-3.6,4.2-4.8c0.2,0.3,4.9,5.8,5.3,6.2c-1.7,1.5-3.5,2.3-5.3,2.3
	C102.2,22.9,100.6,21.5,100.6,19.3L100.6,19.3L100.6,19.3z"/>
<path d="M146.5,6.4h-17.8V9h7.7V25h2.8V9h7.7V6.4H146.5L146.5,6.4z"/>
<path d="M166.4,6.4h-2.5v12c0,3.6-1,4.5-5,4.5s-5-0.9-5-4.5v-12h-2.8V19c0,4.6,2.2,6.5,7.7,6.5s7.8-1.9,7.8-6.5V6.4H166.4L166.4,6.4
	z"/>
<path d="M175.7,6.4h-0.2v18.7h2.8v-8h6.6c0.1,0.2,4.6,8,4.6,8h3.1c0,0-4.4-7.6-4.6-8.1c2.5-0.6,4.2-2.6,4.2-5.3
	c0-3.3-2.2-5.3-5.9-5.3L175.7,6.4L175.7,6.4z M186.1,9c2,0,3.1,1,3.1,2.8s-1.1,2.7-3.2,2.7h-7.8V8.9L186.1,9L186.1,9z"/>
<path d="M215.6,6.4H213v13.2c-0.8-1-11.4-13.2-11.4-13.2h-1.6v18.7h2.8V11.9c0.8,0.9,11.5,13.2,11.5,13.2h1.5V6.4H215.6L215.6,6.4z"
	/>
<path d="M236.3,9c1.8,0,2.7,0.7,2.7,2.3c0,1.9-1.5,2.3-2.7,2.3h-8.4V9H236.3z M225.4,6.4h-0.2v18.7h11.6c3.9,0,6.4-2.2,6.4-5.7
	c0-2.1-1-3.8-2.8-4.9c1-0.8,1.5-1.9,1.5-3.3c0-2.2-1-4.8-5.7-4.8L225.4,6.4L225.4,6.4z M237.1,16.1c1.9,0,3.1,1.2,3.1,3.1
	s-1.1,3.1-3.1,3.1h-9.3v-6.3C227.9,16.1,237.1,16.1,237.1,16.1z"/>
<path d="M266.3,6.4h-2.5v12c0,3.6-1,4.5-5,4.5s-5-0.9-5-4.5v-12h-2.8V19c0,4.6,2.2,6.5,7.7,6.5s7.7-1.9,7.7-6.5V6.4H266.3L266.3,6.4
	z"/>
<path d="M278,6.4h-2.5v18.7h14.6v-2.6h-11.9V6.4H278L278,6.4z"/>
<path d="M299.2,6.4h-2.5v18.7h14.6v-2.6h-11.9V6.4H299.2L299.2,6.4z"/>
</svg>
