<?xml version="1.0" encoding="UTF-8"?><svg id="Layer_1" xmlns="http://www.w3.org/2000/svg" viewBox="0 0 6408.6 1506.46"><defs><style>.cls-1,.cls-2,.cls-3{fill:#023a45;}.cls-4{letter-spacing:.24em;}.cls-5{letter-spacing:.24em;}.cls-2{font-size:224px;}.cls-2,.cls-3{font-family:Lato-Regular, Lato;isolation:isolate;}.cls-6{letter-spacing:.17em;}.cls-3{font-size:194.74px;letter-spacing:.25em;}</style></defs><text class="cls-2" transform="translate(1939.08 1467.78)"><tspan class="cls-4" x="0" y="0">THE HOME OF COLLEC</tspan><tspan class="cls-6" x="3364.92" y="0">T</tspan><tspan class="cls-5" x="3536.06" y="0">ABLES</tspan></text><text class="cls-3" transform="translate(3249.4 1467.78)"><tspan x="0" y="0"> </tspan></text><g><path class="cls-1" d="M389.91,1144.56c-23.36,0-47.32-1.2-71.27-3.59-12.88-1.2-26.35-2.99-42.52-5.39-100.02-15.87-200.04-54.5-268.02-103.32L0,813.95l11.38-2.1c53.9,142.55,138.05,237.48,250.35,282.1,13.78,5.69,28.45,10.48,44.02,14.67,36.53,9.58,75.47,14.37,116.19,14.37,14.37,0,29.35-1.2,44.32-3.29,14.07-2.1,26.95-5.09,39.23-8.98,98.52-29.95,159.62-108.71,159.62-205.13,0-90.14-58.7-162.01-184.47-227-11.98-5.99-23.96-11.98-36.24-17.37-26.65-12.28-53.31-23.36-73.67-31.74l-40.73-16.47C150.03,541.14,22.46,476.75,22.46,303.06,22.46,118.89,174.89,0,410.57,0c143.44,0,247.36,39.23,309.65,72.47l6.29,181.48-10.18,2.99C648.95,100.92,525.56,18.27,359.36,18.27c-144.04,0-244.66,88.64-244.66,215.62,0,147.04,152.43,209.33,286.59,264.43l17.07,7.19,.6,.6h.9l.9,.3c12.58,5.09,25.45,10.18,38.03,15.27,15.87,6.29,31.44,12.88,46.72,19.47,12.58,5.39,24.86,10.78,36.83,16.77,108.71,50.91,220.11,122.48,220.11,267.42,0,168.9-128.77,266.53-249.16,301.56-12.28,3.59-25.16,6.89-38.33,9.28-28.45,5.39-57.2,8.09-85.05,8.39h0Z"/><path class="cls-1" d="M421.95,1076.58c-43.42,0-84.45-5.99-121.58-17.97-6.59-38.03-9.88-78.16-9.88-119.19,0-95.83,20.66-185.67,61.69-267.12,21.56,8.68,49.11,20.36,76.06,32.94-9.58,41.93-14.97,88.04-15.27,136.56-.6,77.56,11.08,158.42,34.74,233.58-8.39,.6-17.07,1.2-25.75,1.2h0Z"/><path class="cls-1" d="M1220.93,630.38c-17.67-40.13-42.52-77.56-73.67-110.5-13.18-14.07-27.25-27.25-42.52-39.53-10.48-8.68-22.16-17.07-34.44-24.86-2.7-1.8-5.39-3.29-8.09-5.09l-4.79-2.99c-41.63-25.16-87.44-43.12-136.26-53.31-13.18-2.7-26.65-5.09-39.53-6.59-18.57-2.4-38.03-3.59-57.8-3.59-118.59,0-219.21,40.73-291.98,117.99-10.78-4.79-21.56-9.28-32.34-13.78,102.12-82.35,229.99-125.78,370.74-125.78h.3c3.59,0,6.89,0,10.18,.3,12.58,0,25.45,.6,39.23,1.5,44.02,2.7,90.44,9.28,134.46,18.87,13.18,2.7,26.35,5.99,38.93,9.28,33.24,8.68,64.68,19.17,90.14,30.55,16.47,7.19,29.95,14.37,40.73,21.26l6.29,184.17-9.58,2.1h0Z"/><path class="cls-1" d="M1360.78,1108.63c142.85-38.93,218.31-141.95,218.31-297.97,0-196.15-109.01-312.94-306.65-329.11l-.9-24.56c112.3-20.36,179.08-100.02,179.08-213.82,0-141.35-100.92-225.8-270.42-225.8h-128.77V335.1c-42.22-8.39-86.25-14.37-127.57-16.77v-112.9c0-130.27-14.97-173.69-65.88-190.16V0h381.82c234.48,0,353.37,71.87,353.37,213.52,0,73.67-33.54,203.64-256.94,244.96l.6,7.19c238.97,11.68,383.02,125.48,384.82,303.96,3.29,185.67-131.47,320.43-360.86,360.86v-21.86h0Z"/><path class="cls-1" d="M858.27,1144.56v-14.97c50.91-16.47,65.88-60.19,65.88-190.46V442.31c46.12,11.08,88.94,29.95,127.57,56.3v481.54c0,120.69,15.87,146.74,89.24,146.74h4.79c.3,5.39,.6,10.78,.9,17.37l-288.39,.3h0Z"/><path class="cls-1" d="M877.14,1505.12c-255.15,0-450.7-115-537.84-315.94,17.07,1.2,33.84,1.8,50.61,1.8,33.24,0,66.78-3.59,99.72-10.48,93.73,190.46,252.75,299.77,437.22,299.77,114.7,0,224.9-60.19,267.72-146.44l.3-.9-1.5-190.46c0-7.19,0-14.07-.3-20.66,0-8.68-.6-17.07-1.2-24.86-1.2-15.57-2.99-28.45-5.39-39.53-9.58-40.13-31.44-61.69-74.87-73.37v-12.58h283.3v12.58c-43.72,11.68-65.58,33.24-74.87,73.37-2.7,11.08-4.49,24.26-5.39,39.53,0,1.5-.3,3.29-.3,5.09v191.96c-89.54,124.28-269.22,210.82-437.22,211.12h0Z"/></g><g><path class="cls-1" d="M1969.89,264.73h14.67c1.8,12.58,5.39,23.66,10.48,33.54,5.09,9.88,11.68,18.27,19.47,25.16s16.77,12.28,26.65,15.87c10.18,3.59,20.96,5.69,32.94,5.69,19.47,0,34.74-4.79,46.12-14.37,11.38-9.58,17.07-22.76,17.07-39.23,0-6.89-1.2-13.18-3.29-18.87-2.4-5.69-5.99-11.38-11.38-16.77-5.39-5.39-12.28-10.78-20.96-15.87s-19.76-10.78-33.24-17.07c-16.17-7.49-29.95-14.67-41.03-21.56-11.08-6.89-19.76-14.07-26.35-21.56-6.59-7.49-11.38-15.27-14.07-23.66-2.7-8.39-4.19-17.97-4.19-28.75,0-12.58,2.1-24.56,6.59-35.04s10.48-20.06,18.27-27.85c7.79-7.79,17.07-13.78,27.85-18.27,10.78-4.19,22.46-6.29,35.34-6.29,11.68,0,22.46,1.8,32.34,5.69s20.06,10.18,30.25,18.57l10.18-18.57h8.98l4.49,82.35h-14.67c-6.29-22.46-15.57-39.53-27.25-50.61-11.68-11.08-26.35-16.47-43.12-16.47s-28.75,4.19-38.33,12.28c-9.58,8.39-14.07,19.47-14.07,33.54,0,6.59,.9,12.58,2.99,17.97s5.39,10.48,10.18,15.27c4.79,4.79,10.78,9.58,18.57,14.37,7.49,4.79,17.07,9.88,28.45,14.97,19.47,8.98,35.64,17.67,48.51,25.45,12.88,7.79,23.06,15.57,30.85,23.66,7.49,7.79,12.88,16.17,16.17,24.86s4.79,18.57,4.79,29.05c0,13.78-2.7,26.35-7.79,38.03-5.39,11.68-12.58,21.56-22.16,29.65-9.58,8.39-20.66,14.67-33.84,19.17-13.18,4.49-27.55,6.89-43.42,6.89s-28.45-2.1-40.43-6.59-23.96-11.98-36.54-22.46l-11.08,20.36h-8.98l-5.99-92.54h0Z"/><path class="cls-1" d="M2523.91,122.18h-16.17c-.9-11.98-2.7-21.86-5.39-29.65-2.99-8.09-6.89-14.37-12.58-18.87-5.39-4.49-12.28-7.79-20.36-9.58s-17.97-2.99-29.05-2.99c-9.58,0-17.37,.3-23.36,.6s-10.48,1.2-13.48,2.4-5.09,2.4-5.99,3.89-1.5,3.59-1.5,5.99v221.31c0,8.68,.6,16.47,1.8,22.76,1.2,6.29,3.59,11.38,7.19,15.57s8.68,6.89,15.27,8.98c6.59,2.1,15.57,3.29,26.65,3.59v15.57h-148.84v-15.57c11.08-.3,20.06-1.5,26.95-3.59s11.98-5.09,15.57-8.98,5.99-9.28,7.19-15.57,1.8-14.07,1.8-22.76V73.97c0-2.4-.6-4.49-1.5-5.99s-2.7-2.7-5.39-3.89c-2.7-1.2-6.59-1.8-11.68-2.4-5.09-.3-11.68-.6-20.06-.6-10.18,0-19.76,.3-28.45,1.2s-16.47,3.29-22.76,7.19-11.68,10.18-15.57,18.27c-3.89,8.39-5.99,19.76-6.29,34.44h-14.67V43.42h297.37l3.29,78.76h0Z"/><path class="cls-1" d="M2709.88,246.46h-105.11c-4.49,11.38-8.39,21.26-11.38,29.95s-5.69,16.17-7.79,22.46c-2.1,6.29-3.29,11.68-4.19,16.17s-1.2,8.09-1.2,10.78c0,7.79,2.4,12.88,7.19,15.87s12.58,4.19,23.66,4.19v15.57h-95.83v-15.57c5.99-.9,11.38-1.8,15.57-3.29,4.49-1.5,8.09-3.29,11.38-5.69s6.29-5.69,8.68-9.58c2.4-3.89,4.79-8.98,7.19-14.67l102.42-269.22h17.07l89.54,233.28c5.99,15.57,11.38,27.85,15.87,37.13s8.68,16.17,12.88,20.96,8.68,7.79,13.48,8.98c4.79,1.5,10.78,2.1,17.37,2.1v16.17h-128.47v-16.17c14.07,0,23.36-1.5,28.75-4.19s7.79-7.19,7.79-13.78c0-2.7,0-5.39-.3-7.79-.3-2.4-.6-4.79-1.5-7.79-.6-2.7-1.5-5.69-2.7-9.28s-2.7-7.49-4.49-12.28l-15.87-44.32h0Zm-97.33-20.66h89.84l-43.72-121.88-46.12,121.88Z"/><path class="cls-1" d="M3110.86,365.95l-187.17-259.04h-1.5v176.69c0,13.78,.6,24.56,1.5,32.64,.9,8.09,2.7,14.37,5.39,18.57,2.7,4.49,6.59,7.19,11.98,8.68s11.98,2.1,20.36,2.4v15.57h-106.01v-15.57c9.28-.3,16.47-1.2,22.16-2.7s9.88-4.19,13.18-8.39c2.99-4.19,5.39-9.88,6.29-17.67,.9-7.49,1.5-17.97,1.5-30.85V118.59c0-11.68-.6-21.26-1.5-28.75-.9-7.49-2.7-13.48-5.39-17.97-2.7-4.49-6.89-7.49-11.98-9.28s-11.98-2.99-20.36-3.59v-15.57h77.86l172.19,241.07h1.5V121.58c0-13.48-.6-24.26-1.5-32.34-.9-8.09-2.7-14.37-5.39-18.87s-6.59-7.19-11.68-8.68-11.98-2.1-20.36-2.4v-15.57h106.01v15.57c-9.28,.3-16.77,1.2-22.16,2.7-5.69,1.5-10.18,4.49-13.18,8.39s-5.39,10.18-6.29,17.67-1.5,17.97-1.5,30.55v247.36h-23.96Z"/><path class="cls-1" d="M3480.71,361.76h-254.55v-15.57c9.28-.3,16.77-1.2,22.16-2.4,5.69-1.5,9.88-3.59,13.18-6.89,3.29-3.29,5.39-8.09,6.29-14.07,.9-5.99,1.5-14.07,1.5-23.66V106.31c0-9.58-.6-17.37-1.5-23.36-.9-5.99-2.7-10.48-5.39-14.07-2.7-3.29-6.89-5.69-11.98-6.89-5.39-1.2-11.98-2.1-20.36-2.7v-15.57h119.79v15.57c-8.39,.3-15.27,1.2-20.36,2.4-5.09,1.5-8.98,3.89-11.68,7.49s-4.49,8.68-5.39,14.97-1.5,14.67-1.5,25.16v178.18c0,11.68,1.2,20.96,3.29,28.45,2.1,7.19,5.99,12.88,11.38,17.07,5.39,3.89,12.58,6.89,21.56,8.39s20.36,2.4,33.84,2.4c14.97,0,27.55-.9,37.73-2.7s18.87-5.09,25.75-9.58,12.58-10.78,16.47-18.87c4.19-8.09,7.49-18.57,10.48-31.74h14.97l-5.69,80.86h0Z"/><path class="cls-1" d="M3613.07,186.87c14.07,0,26.05-.9,35.64-2.7,9.58-1.8,17.07-4.49,22.76-8.39s9.58-8.68,12.28-14.97c2.4-5.99,3.59-13.18,3.59-21.56h13.78v112.9h-13.78c0-8.39-1.2-15.57-3.29-21.56s-6.29-11.08-11.68-14.97c-5.69-3.89-13.18-6.89-22.76-8.98s-21.86-2.99-36.53-2.99v93.43c0,8.98,.9,16.77,3.29,22.46,2.1,5.99,5.69,10.78,10.78,14.37,5.09,3.59,11.98,6.29,20.36,7.79,8.39,1.5,18.87,2.4,31.14,2.4,14.07,0,25.75-.9,35.34-2.99,9.58-2.1,17.97-5.69,24.56-10.48,6.59-5.09,11.68-11.38,15.87-19.76,3.89-8.09,7.19-18.27,9.88-30.55h14.97l-5.99,81.46h-244.66v-15.57c9.28-.3,16.77-1.2,22.16-2.4,5.69-1.5,9.88-3.59,13.18-6.89,3.29-3.29,5.39-8.09,6.29-14.07,.9-5.99,1.5-14.07,1.5-23.66V106.31c0-9.58-.6-17.37-1.5-23.36-.9-5.99-2.7-10.48-5.39-14.07-2.7-3.29-6.89-5.69-11.98-6.89-5.39-1.2-11.98-2.1-20.36-2.7v-15.57h227.59l3.59,72.77h-13.78c-1.5-11.08-4.19-20.06-7.79-27.25-3.59-7.19-8.39-12.58-14.67-16.77-6.29-4.19-14.07-7.19-23.36-8.68s-20.96-2.4-34.14-2.4h-50.01c-4.49,0-6.59,2.4-6.59,7.19l-.3,118.29h0Z"/><path class="cls-1" d="M3857.14,94.63c-3.89-7.19-7.49-13.18-11.08-17.67-3.29-4.49-6.89-8.09-10.48-11.08s-7.19-4.49-11.38-5.69-8.68-1.5-14.07-1.5v-15.57h123.98v15.57c-13.18,0-22.46,1.2-27.85,2.99-5.39,2.1-8.09,5.69-8.09,11.08,0,5.69,2.99,14.07,8.98,24.86l61.09,109.6h1.5l44.62-78.46c8.39-14.97,14.37-26.65,17.97-35.04,3.59-8.68,5.39-15.57,5.39-20.66s-1.8-8.98-5.69-11.08-10.48-2.99-19.76-2.99v-15.57h90.14v15.57c-5.39,0-10.48,.9-14.67,2.4s-8.98,5.09-13.48,9.88c-4.79,5.09-9.88,11.98-15.57,20.66-5.69,8.68-12.58,20.36-20.66,34.74l-60.79,107.51v49.11c0,13.48,.6,24.26,1.5,32.34,.9,8.09,2.99,14.37,5.99,18.87s7.49,7.49,12.88,8.98c5.39,1.5,13.18,2.4,22.76,2.4v15.57h-127.57v-15.57c9.58,0,17.07-.6,22.76-2.4,5.69-1.5,9.88-4.49,12.88-8.68s5.09-10.18,5.99-17.97,1.5-17.97,1.5-30.55v-50.31l-78.76-141.35h0Z"/><path class="cls-1" d="M4398.87,365.95c-22.16,0-42.52-3.59-60.19-11.08-17.97-7.49-33.24-17.97-45.82-31.74-12.58-13.78-22.16-30.25-29.05-49.71s-10.18-41.33-10.18-65.28,3.59-47.91,11.08-68.58c7.19-20.66,17.67-38.33,30.85-53.31,13.18-14.97,29.05-26.35,47.62-34.44,18.57-8.09,38.93-12.28,61.09-12.28,15.87,0,30.55,2.4,44.62,7.19,14.07,4.79,29.05,12.28,45.22,22.76l8.39-25.75h13.78l-5.09,95.23h-18.87c0-13.48-2.4-25.16-7.19-35.04-4.79-9.88-11.38-17.97-19.17-24.26s-16.77-11.08-26.95-14.07c-10.18-2.99-20.36-4.49-30.85-4.49-15.87,0-30.25,3.29-42.82,9.88-12.58,6.59-23.36,16.17-32.04,28.45-8.68,12.58-15.27,27.55-19.76,45.52-4.49,17.97-6.89,38.33-6.89,60.79,0,44.32,8.68,78.46,26.35,102.42,17.67,23.96,43.12,35.64,76.36,35.64,12.58,0,23.96-1.5,33.84-4.79s18.57-7.49,25.45-12.88,12.28-11.68,15.87-18.57c3.59-6.89,5.39-14.37,5.39-22.16,0-15.87-2.99-26.65-9.28-32.34s-16.17-8.39-30.25-8.39v-15.57h112v15.57c-6.29,0-11.68,.6-15.87,1.8s-7.49,2.99-10.18,5.99c-2.4,2.99-4.19,6.59-5.09,11.38-.9,4.79-1.5,10.78-1.5,17.67v46.42c-5.09,0-9.58,.3-13.48,.6s-8.39,1.5-12.88,2.99-9.28,3.59-14.67,6.29c-5.39,2.7-11.68,6.29-19.17,10.48-9.28,5.39-19.76,9.88-31.74,13.18-11.98,3.29-24.86,4.49-38.93,4.49h0Z"/><path class="cls-1" d="M4691.15,283.6c0,13.78,.6,24.56,1.5,32.64s2.99,14.37,5.99,18.57c2.99,4.49,7.49,7.19,12.88,8.68s13.18,2.1,22.16,2.4v15.57h-127.57v-15.57c9.28-.3,16.77-1.2,22.16-2.7,5.69-1.5,9.88-4.19,13.18-8.39s5.39-9.88,6.29-17.67c.9-7.49,1.5-17.97,1.5-30.85V118.59c0-11.68-.6-21.26-1.5-28.75-.9-7.49-2.7-13.48-5.39-17.97s-6.89-7.49-11.98-9.28-11.98-2.99-20.36-3.59v-15.57h119.79v15.57c-8.39,.3-15.27,1.5-20.36,3.29-5.09,1.8-8.98,5.09-11.68,9.58s-4.49,10.78-5.39,18.87c-.9,8.09-1.5,18.27-1.5,30.55l.3,162.31h0Z"/><path class="cls-1" d="M4782.79,361.76v-15.57c10.18-.3,18.57-1.2,24.56-2.4,6.29-1.5,10.78-3.59,14.07-6.89,3.29-3.29,5.39-8.09,6.59-14.07,1.2-5.99,1.8-14.07,1.8-23.66V106.31c0-9.58-.6-17.37-1.5-23.36-.9-5.99-2.7-10.48-5.39-14.07-2.7-3.29-6.89-5.69-11.98-6.89-5.39-1.2-11.98-2.1-20.36-2.7v-15.57h117.69c35.34,0,63.19,6.59,82.65,19.76,19.76,13.18,29.65,31.74,29.65,56,0,18.27-5.39,32.94-16.47,44.62s-28.15,20.96-51.81,28.45v1.8c8.09,.9,15.27,1.8,21.26,2.99s11.38,2.4,16.17,3.89,8.98,3.29,13.18,5.69c4.19,2.1,8.09,4.79,11.98,7.49,23.36,17.37,35.04,39.23,35.04,65.28,0,14.67-3.89,28.15-11.68,40.73-7.79,12.58-18.57,22.46-32.34,29.65-4.49,2.4-8.98,4.49-13.78,5.99s-10.18,2.7-16.47,3.59c-6.29,.9-13.48,1.8-21.86,2.1s-17.97,.6-29.35,.6l-141.65-.6h0Zm110.8-177.88c8.09,0,14.97,0,20.36-.3s10.18-.6,14.07-1.5c3.89-.6,7.49-1.5,10.48-2.99,2.99-1.2,5.99-2.99,9.28-5.09,8.39-5.39,14.37-11.98,17.97-19.76s5.39-17.67,5.39-30.25c0-21.86-5.09-37.43-15.27-47.02s-26.05-14.37-47.32-14.37h-30.25c-4.49,0-6.59,2.4-6.59,7.19v114.1h21.86Zm32.34,160.21c47.62,0,71.27-21.26,71.27-64.09,0-31.14-12.28-53.01-36.53-65.28-4.19-1.8-8.39-3.59-12.28-5.09-3.89-1.5-8.39-2.4-13.78-2.99-5.39-.6-11.38-1.2-18.57-1.5s-16.17-.3-26.65-.3h-17.67v92.24c0,16.77,4.19,29.05,12.58,36.24,8.09,6.89,22.16,10.78,41.63,10.78h0Z"/><path class="cls-1" d="M5098.43,361.76v-15.57c10.18-.3,18.57-1.2,24.56-2.4,6.29-1.5,10.78-3.59,14.07-6.89,3.29-3.29,5.39-8.09,6.59-14.07,1.2-5.99,1.8-14.07,1.8-23.66V106.31c0-9.58-.6-17.37-1.5-23.36-.9-5.99-2.7-10.48-5.39-14.07-2.7-3.29-6.89-5.69-11.98-6.89-5.39-1.2-11.98-2.1-20.36-2.7v-15.57h117.69c35.34,0,63.19,6.59,82.65,19.76,19.76,13.18,29.65,31.74,29.65,56,0,18.27-5.39,32.94-16.47,44.62s-28.15,20.96-51.81,28.45v1.8c8.09,.9,15.27,1.8,21.26,2.99s11.38,2.4,16.17,3.89,8.98,3.29,13.18,5.69c4.19,2.1,8.09,4.79,11.98,7.49,23.36,17.37,35.04,39.23,35.04,65.28,0,14.67-3.89,28.15-11.68,40.73-7.79,12.58-18.57,22.46-32.34,29.65-4.49,2.4-8.98,4.49-13.78,5.99s-10.18,2.7-16.47,3.59c-6.29,.9-13.48,1.8-21.86,2.1s-17.97,.6-29.35,.6l-141.65-.6h0Zm110.5-177.88c8.09,0,14.97,0,20.36-.3s10.18-.6,14.07-1.5c3.89-.6,7.49-1.5,10.48-2.99,2.99-1.2,5.99-2.99,9.28-5.09,8.39-5.39,14.37-11.98,17.97-19.76s5.39-17.67,5.39-30.25c0-21.86-5.09-37.43-15.27-47.02s-26.05-14.37-47.32-14.37h-30.25c-4.49,0-6.59,2.4-6.59,7.19v114.1h21.86Zm32.34,160.21c47.62,0,71.27-21.26,71.27-64.09,0-31.14-12.28-53.01-36.53-65.28-4.19-1.8-8.39-3.59-12.28-5.09s-8.39-2.4-13.78-2.99c-5.39-.6-11.38-1.2-18.57-1.5s-16.17-.3-26.65-.3h-17.67v92.24c0,16.77,4.19,29.05,12.58,36.24,8.38,6.89,22.16,10.78,41.63,10.78h0Z"/><path class="cls-1" d="M5587.46,39.23c23.06,0,44.62,4.19,64.68,12.88,20.06,8.68,37.13,20.36,52.11,35.04s26.35,32.34,34.74,52.41c8.39,20.06,12.58,41.93,12.58,65.28s-4.19,43.42-12.88,62.89c-8.39,19.47-20.06,36.53-34.74,50.91-14.67,14.37-32.04,26.05-52.11,34.44-20.06,8.39-41.33,12.58-64.09,12.58s-44.32-4.19-64.09-12.58c-20.06-8.39-37.13-19.76-52.11-34.44s-26.35-31.44-34.74-51.21c-8.39-19.47-12.88-40.43-12.88-62.89s4.19-45.22,12.58-65.28c8.39-20.06,20.06-37.73,34.74-52.41,14.67-14.97,32.04-26.65,52.11-35.04,19.47-8.39,41.03-12.58,64.09-12.58h0Zm0,303.96c17.37,0,32.94-3.29,46.72-9.58,13.78-6.29,25.75-15.57,35.34-27.25,9.88-11.98,17.37-26.35,22.76-43.12,5.39-17.07,7.79-35.94,7.79-56.9,0-22.16-2.7-41.93-7.79-59.59-5.39-17.67-12.88-32.94-22.46-45.52s-21.56-22.16-35.34-29.05c-13.78-6.89-29.65-10.18-47.02-10.18s-32.94,3.29-47.02,10.18c-14.07,6.89-25.75,16.47-35.34,29.05-9.58,12.58-17.37,27.55-22.46,45.52-5.39,17.67-7.79,37.73-7.79,59.59s2.7,39.83,7.79,56.9c5.39,17.07,12.58,31.44,22.46,43.12,9.58,11.98,21.56,20.96,35.34,27.25,14.37,6.29,29.95,9.58,47.02,9.58h0Z"/><path class="cls-1" d="M6057.92,365.95l-187.17-259.04h-1.5v176.69c0,13.78,.6,24.56,1.5,32.64,.9,8.09,2.7,14.37,5.39,18.57,2.7,4.49,6.59,7.19,11.68,8.68s11.98,2.1,20.36,2.4v15.57h-106.01v-15.57c9.28-.3,16.77-1.2,22.16-2.7,5.69-1.5,9.88-4.19,13.18-8.39s5.39-9.88,6.29-17.67c.9-7.49,1.5-17.97,1.5-30.85V118.59c0-11.68-.6-21.26-1.5-28.75s-2.7-13.48-5.39-17.97-6.89-7.49-11.98-9.28-11.98-2.99-20.36-3.59v-15.57h77.86l172.19,241.07h1.5V121.58c0-13.48-.6-24.26-1.5-32.34s-2.7-14.37-5.39-18.87-6.59-7.19-11.68-8.68-11.98-2.1-20.36-2.4v-15.57h106.01v15.57c-9.28,.3-16.77,1.2-22.16,2.7-5.69,1.5-10.18,4.49-13.18,8.39s-5.39,10.18-6.29,17.67-1.5,17.97-1.5,30.55v247.36h-23.66Z"/><path class="cls-1" d="M6176.21,264.73h14.67c1.8,12.58,5.39,23.66,10.48,33.54s11.68,18.27,19.17,25.16c7.79,6.89,16.77,12.28,26.65,15.87,10.18,3.59,20.96,5.69,32.94,5.69,19.47,0,34.74-4.79,46.12-14.37,11.38-9.58,16.77-22.76,16.77-39.23,0-6.89-1.2-13.18-3.29-18.87-2.4-5.69-5.99-11.38-11.38-16.77-5.39-5.39-12.28-10.78-20.96-15.87s-19.77-10.78-33.24-17.07c-16.17-7.49-29.95-14.67-41.03-21.56-11.08-6.89-19.77-14.07-26.35-21.56s-11.38-15.27-14.07-23.66c-2.69-8.39-4.19-17.97-4.19-28.75,0-12.58,2.1-24.56,6.59-35.04s10.48-20.06,18.27-27.85c7.79-7.79,17.07-13.78,27.85-18.27,10.78-4.19,22.46-6.29,35.34-6.29,11.68,0,22.16,1.8,32.34,5.69,9.88,3.89,20.06,10.18,30.25,18.57l10.18-18.57h8.98l4.19,82.35h-14.67c-6.29-22.46-15.27-39.53-27.25-50.61s-26.35-16.47-43.12-16.47-28.75,4.19-38.33,12.28c-9.58,8.09-14.07,19.47-14.07,33.54,0,6.59,1.2,12.58,3.29,17.97,2.1,5.39,5.39,10.48,10.18,15.27,4.79,4.79,10.78,9.58,18.57,14.37,7.49,4.79,17.07,9.88,28.45,14.97,19.47,8.98,35.64,17.67,48.51,25.45,12.88,7.79,23.06,15.57,30.85,23.66,7.49,7.79,12.88,16.17,16.17,24.86,3.29,8.68,4.79,18.57,4.79,29.05,0,13.78-2.69,26.35-7.79,38.03-5.39,11.68-12.58,21.56-22.16,29.65-9.58,8.39-20.66,14.67-33.84,19.17-13.18,4.49-27.55,6.89-43.42,6.89s-28.45-2.1-40.43-6.59-24.26-11.98-36.53-22.46l-11.08,20.36h-8.98l-5.39-92.54h0Z"/></g><g><path class="cls-1" d="M1948.03,1046.94v-26.35c17.37-.3,31.14-1.8,41.33-4.19,10.48-2.4,18.27-6.29,23.96-11.98,5.39-5.69,9.28-13.48,11.38-23.66,2.1-10.18,2.99-23.36,2.99-39.83v-324.32c0-16.17-.9-29.35-2.4-39.23-1.5-9.88-4.49-17.97-9.28-23.66s-11.38-9.88-20.36-11.68c-8.98-2.1-20.36-3.59-34.44-4.49v-26.35h198.25c59.59,0,106.01,11.08,139.25,33.54,33.24,22.46,49.71,53.6,49.71,94.03,0,30.55-9.28,55.7-27.55,75.17-18.27,19.47-47.32,35.64-87.14,47.91v2.7c13.78,1.5,25.75,2.99,35.94,4.79s19.17,4.19,27.25,6.59c8.09,2.7,15.27,5.69,22.16,9.28,6.89,3.59,13.48,7.79,20.36,12.58,39.23,29.35,59,65.88,59,109.9,0,24.56-6.59,47.62-19.47,68.58s-31.14,37.73-54.8,49.71c-7.49,4.19-15.27,7.49-23.36,10.18-8.09,2.7-17.37,4.49-27.85,6.29s-22.76,2.7-36.83,3.59c-14.07,.6-30.55,1.2-49.41,1.2l-238.68-.3h0Zm186.27-299.47c13.78,0,25.16-.3,34.44-.6,9.28-.3,17.37-1.2,23.96-2.4,6.59-1.2,12.58-2.7,17.67-4.79,5.09-2.1,10.18-5.09,15.57-8.68,14.07-9.28,24.26-20.36,30.25-33.54,5.99-12.88,8.98-29.95,8.98-50.91,0-36.53-8.39-62.89-25.45-79.06-17.07-16.17-43.72-23.96-79.96-23.96h-50.91c-7.49,0-11.38,3.89-11.38,11.68v192.26h36.83Zm54.5,269.52c79.96,0,120.09-35.94,120.09-107.81,0-52.41-20.66-89.24-61.69-109.9-7.19-3.29-14.07-5.99-20.66-8.39-6.59-2.4-14.37-4.19-23.36-5.09-8.98-1.2-19.47-2.1-31.44-2.4s-26.95-.6-44.92-.6h-29.95v155.42c0,28.45,7.19,48.51,21.26,60.79,14.37,11.68,37.73,17.97,70.67,17.97h0Z"/><path class="cls-1" d="M2773.06,852.58h-176.98c-7.49,19.17-14.07,35.94-19.17,50.61-5.39,14.67-9.58,27.25-12.88,38.03-3.29,10.78-5.69,19.76-6.89,27.25s-2.1,13.48-2.1,17.97c0,12.88,3.89,21.86,11.98,26.95,8.09,4.79,21.26,7.19,39.83,7.19v26.35h-161.11v-26.35c10.18-1.5,18.87-3.29,26.35-5.69,7.19-2.4,13.78-5.69,19.17-9.88,5.39-4.19,10.48-9.58,14.67-16.47,4.19-6.59,8.39-14.97,12.28-24.56l172.49-453.39h28.45l150.63,392.6c10.18,26.05,18.87,46.72,26.65,62.29,7.49,15.57,14.97,27.25,21.86,35.04,7.19,7.79,14.67,12.88,22.76,15.27,8.09,2.4,17.97,3.59,29.35,3.59v27.25h-216.22v-27.25c23.36,0,39.53-2.4,48.51-6.89s13.18-12.28,13.18-23.06c0-4.49-.3-8.98-.6-12.88-.6-3.89-1.2-8.39-2.4-12.88-1.2-4.49-2.7-9.88-4.49-15.57s-4.49-12.58-7.49-20.66l-27.85-74.87h0Zm-164.11-34.74h151.23l-73.67-205.43-77.56,205.43Z"/><path class="cls-1" d="M3445.97,1046.94h-428.24v-26.35c15.57-.3,27.85-1.8,37.43-4.19,9.58-2.4,16.77-6.29,22.16-11.98s8.68-13.48,10.78-23.66c1.8-10.18,2.7-23.36,2.7-39.83v-324.32c0-16.17-.9-29.35-2.4-39.23-1.5-9.88-4.79-17.97-9.28-23.66-4.79-5.69-11.38-9.88-20.36-11.68-8.98-2.1-20.36-3.59-34.44-4.49v-26.35h201.54v26.35c-14.07,.6-25.45,1.8-34.14,4.19-8.68,2.4-15.27,6.59-20.06,12.58s-7.79,14.37-9.28,25.16c-1.5,10.78-2.4,24.86-2.4,42.52v300.07c0,19.47,1.8,35.34,5.69,47.62,3.59,12.28,10.18,21.86,19.17,28.45s21.26,11.38,36.24,13.78,34.14,3.89,57.2,3.89c25.16,0,46.42-1.5,63.49-4.49,17.37-2.99,31.74-8.39,43.42-16.17,11.68-7.79,20.96-18.27,27.85-32.04,6.89-13.78,12.58-31.44,17.67-53.31h25.16l-9.88,137.16h0Z"/><path class="cls-1" d="M3521.43,1046.94v-26.35c16.77-.3,30.55-1.8,40.73-3.89s18.57-5.99,24.26-11.98c5.69-5.69,9.58-13.78,11.68-23.66,2.1-9.88,2.99-23.36,2.99-40.13v-324.32c0-16.17-.9-29.35-2.4-39.23-1.5-9.88-4.79-17.97-9.28-23.66-4.79-5.69-11.38-9.88-20.36-11.68-8.98-2.1-20.36-3.59-34.44-4.49v-26.35h232.69c39.83,0,76.66,6.89,110.5,20.96,33.84,13.78,62.89,33.24,87.44,57.8,24.56,24.56,43.72,53.9,57.5,87.74s20.66,70.67,20.66,110.8-6.29,73.07-19.17,104.81c-12.88,31.74-30.85,59-54.2,81.75-23.36,22.76-50.91,40.43-83.25,53.31-32.34,12.88-67.68,19.17-106.01,19.17l-259.34-.6h0Zm160.51-502.21c-7.49,0-11.38,3.89-11.38,11.68v376.73c0,53.01,32.94,79.36,98.82,79.36,60.49,0,106.91-18.87,139.25-56.9,32.34-37.73,48.51-93.43,48.51-166.8,0-38.63-4.49-72.77-13.18-103.02-8.98-30.25-21.56-55.7-38.03-76.66-16.47-20.96-36.53-36.83-59.89-47.91s-50.01-16.77-79.66-16.77l-84.45,.3h0Z"/><path class="cls-1" d="M4641.44,941.82l103.32-302.16c6.29-17.97,10.78-32.64,13.18-43.12,2.4-10.48,3.89-20.06,3.89-27.85,0-11.98-3.59-20.36-11.08-24.56-7.19-4.49-20.36-6.59-38.93-6.59v-26.35h161.11v26.35c-20.36,0-35.64,4.49-46.12,13.18s-19.17,23.36-26.35,43.12l-166.5,460.28h-23.36l-127.27-396.19-141.35,396.19h-23.36l-138.05-399.79c-8.09-22.16-15.27-41.03-21.56-56s-13.18-26.95-20.66-35.94c-7.19-8.68-15.57-14.97-24.86-18.87-9.28-3.59-20.66-5.69-33.84-5.69v-27.25h216.22v27.25c-22.46,0-38.33,2.1-47.32,6.29-8.98,4.19-13.48,12.28-13.48,24.26,0,5.99,.9,12.88,2.7,20.96,1.8,8.09,4.49,17.07,8.09,27.85l100.92,322.53,81.45-240.77c6.29-18.27,12.28-35.04,18.27-50.61,5.99-15.57,10.78-29.65,14.37-42.22-6.29-13.48-11.68-24.56-17.07-33.54-5.09-8.68-10.18-15.87-15.27-20.96-5.09-5.09-10.48-8.68-15.87-10.78-5.39-2.1-11.38-2.99-17.67-2.99v-27.25h203.04v27.25c-12.88,0-23.36,.6-31.14,1.5-8.09,.9-14.07,2.4-18.27,4.49s-7.19,5.09-8.68,8.68c-1.5,3.59-2.4,8.09-2.4,13.18,0,6.89,1.2,15.27,3.59,25.45,2.4,9.88,5.99,22.76,10.18,38.03l90.14,312.64h0Z"/><path class="cls-1" d="M5067.28,915.17c0,23.36,.9,41.63,2.7,55.1,1.8,13.48,5.09,23.96,10.18,31.44,5.09,7.49,12.28,12.28,21.86,14.67,9.58,2.4,21.86,3.59,37.43,4.19v26.35h-215.02v-26.35c15.57-.3,27.85-2.1,37.43-4.49,9.58-2.7,17.07-7.19,22.16-14.37,5.39-6.89,8.68-16.77,10.78-29.65,1.8-12.88,2.7-29.95,2.7-51.81v-282.7c0-19.47-.9-35.64-2.4-48.51-1.5-12.88-4.79-22.76-9.28-30.25-4.79-7.49-11.38-12.58-20.36-15.57-8.98-2.99-20.36-5.09-34.44-5.99v-26.35h201.54v26.35c-14.07,.6-25.45,2.4-34.14,5.69-8.68,3.29-15.27,8.68-20.06,16.47-4.79,7.79-7.79,18.27-9.28,31.74-1.5,13.48-2.4,30.55-2.4,51.51l.6,272.51h0Z"/><path class="cls-1" d="M5656.63,1053.82l-315.04-436.02h-2.7v297.37c0,23.36,.9,41.63,2.4,55.1,1.5,13.48,4.79,23.96,9.28,31.44,4.79,7.49,11.38,12.28,19.76,14.67,8.68,2.4,20.06,3.59,34.14,4.19v26.35h-178.48v-26.35c15.57-.3,27.85-2.1,37.43-4.49,9.58-2.7,17.07-7.19,22.16-14.37,5.09-7.19,8.68-16.77,10.78-29.65,1.8-12.88,2.7-29.95,2.7-51.81v-282.7c0-19.47-.9-35.64-2.4-48.51-1.5-12.88-4.79-22.76-9.28-30.25-4.79-7.49-11.38-12.58-20.36-15.57-8.98-2.99-20.36-5.09-34.44-5.99v-26.35h131.17l289.88,406.08h2.7v-274.31c0-22.76-.9-41.03-2.4-54.5-1.5-13.78-4.79-24.26-9.28-31.74-4.79-7.49-11.38-12.28-20.06-14.67-8.68-2.4-20.06-3.59-34.14-4.19v-26.35h178.48v26.35c-15.57,.6-27.85,2.1-37.43,4.49-9.58,2.7-17.07,7.19-22.16,14.37-5.39,6.89-8.68,17.07-10.48,29.95s-2.7,30.25-2.7,51.51v416.26l-39.53-.3h0Z"/><path class="cls-1" d="M5863.56,638.76c20.36-16.17,34.74-31.74,43.42-46.42,8.68-14.67,12.88-30.85,12.88-48.51-5.69,3.59-12.28,5.69-19.76,5.69-10.18,0-18.57-3.59-24.86-10.78-6.29-7.19-9.58-16.47-9.58-27.55,0-12.58,4.19-22.76,12.28-30.55,8.09-7.79,19.17-11.68,32.94-11.68,31.44,0,47.02,21.86,47.02,65.58,0,11.98-1.2,23.06-3.89,32.64-2.7,9.88-6.89,19.47-12.88,28.75-5.99,9.28-14.07,19.17-24.26,29.35-10.18,9.88-22.76,20.66-37.73,32.34l-15.57-18.87h0Z"/><path class="cls-1" d="M6054.62,883.13h24.56c2.99,20.96,8.98,39.83,17.67,56.3,8.68,16.77,19.47,30.85,32.34,42.52,13.18,11.68,28.15,20.66,45.22,26.95,17.07,6.29,35.64,9.28,55.4,9.28,32.64,0,58.7-8.09,77.56-24.26,19.17-16.17,28.45-38.33,28.45-66.18,0-11.68-1.8-22.16-5.69-32.04-3.89-9.58-10.18-19.17-18.87-28.15-8.68-8.98-20.66-17.97-35.64-26.95-14.67-8.68-33.54-18.27-56-28.45-27.25-12.58-50.31-24.56-68.88-36.24s-33.54-23.66-44.32-36.24c-11.08-12.58-18.87-25.75-23.66-40.13-4.79-14.07-6.89-30.25-6.89-48.51,0-21.26,3.59-41.03,11.08-59.29,7.19-18.27,17.67-33.84,30.85-47.02s29.05-23.36,47.02-30.55c17.97-7.19,38.03-10.78,59.59-10.78,19.47,0,37.73,3.29,54.5,9.88,16.77,6.59,33.84,17.07,51.21,31.44l17.37-31.44h15.27l7.19,138.65h-24.56c-10.48-38.03-26.05-66.48-46.12-85.05-20.06-18.57-44.32-27.85-72.47-27.85s-48.51,6.89-64.39,20.96c-15.87,14.07-23.96,32.64-23.96,56.3,0,11.08,1.8,21.26,5.39,30.25,3.59,8.98,9.28,17.67,17.37,25.75,8.09,8.09,18.27,16.17,31.14,24.26,12.88,8.09,28.75,16.77,47.61,25.45,32.64,15.27,59.89,29.65,81.45,42.82,21.56,13.18,38.93,26.35,51.81,39.83s21.86,27.25,27.25,41.93c5.39,14.67,8.09,31.14,8.09,49.11,0,23.36-4.49,44.62-13.18,64.09s-21.26,36.24-37.13,50.01c-15.87,13.78-35.04,24.56-56.9,32.34-22.16,7.79-46.42,11.38-73.07,11.38s-47.91-3.59-67.98-11.08c-20.06-7.49-40.43-20.06-61.39-37.73l-18.57,34.14h-15.27l-10.48-155.72h0Z"/></g></svg>